<svg xmlns="http://www.w3.org/2000/svg" id="Layer_2" data-name="Layer 2" viewBox="0 0 40.35 40.35"><defs><style>      .cls-1 {        fill: #391032;        stroke-width: 0px;      }    </style></defs><g id="Layer_1-2" data-name="Layer 1"><path class="cls-1" d="m36.54,0H3.81C1.71,0,0,1.71,0,3.81v32.73c0,2.1,1.71,3.81,3.81,3.81h32.73c2.1,0,3.81-1.71,3.81-3.81V3.81c0-2.1-1.71-3.81-3.81-3.81Zm-5.67,18.37c0,.76-.19,1.45-.57,2.07s-.88,1.12-1.5,1.5-1.31.57-2.07.57h-12.96c-.1,0-.19.04-.25.1s-.1.16-.1.25v3.81c0,.1.03.19.1.25.07.07.15.1.25.1h17.1v3.93H9.48v-8.28c0-.78.19-1.48.57-2.1.38-.62.88-1.11,1.5-1.49.62-.37,1.31-.55,2.07-.55h12.96c.1,0,.18-.03.25-.1s.1-.15.1-.25v-4.53c0-.1-.04-.18-.1-.25-.07-.07-.16-.1-.25-.1h-12.81c-.1,0-.19.04-.25.1s-.1.16-.1.25v1.47h-3.93v-1.62c0-.78.19-1.48.57-2.1.38-.62.88-1.11,1.5-1.48s1.31-.56,2.07-.56h13.11c.76,0,1.45.19,2.07.56s1.12.87,1.5,1.5.57,1.33.57,2.08v4.86Z"></path></g></svg>