<svg xmlns="http://www.w3.org/2000/svg" id="Layer_2" data-name="Layer 2" viewBox="0 0 40.35 40.35"><defs><style>      .cls-1 {        fill: #391032;        stroke-width: 0px;      }    </style></defs><g id="Layer_1-2" data-name="Layer 1"><path class="cls-1" d="m36.54,0H3.81C1.71,0,0,1.71,0,3.81v32.73c0,2.1,1.71,3.81,3.81,3.81h32.73c2.1,0,3.81-1.71,3.81-3.81V3.81c0-2.1-1.71-3.81-3.81-3.81Zm-5.65,26.83c0,.74-.19,1.43-.57,2.06s-.88,1.14-1.5,1.52c-.62.38-1.31.57-2.07.57h-13.11c-.78,0-1.48-.19-2.1-.57-.62-.38-1.12-.89-1.5-1.52-.38-.63-.57-1.31-.57-2.06v-1.29h3.93v1.14c0,.1.03.19.1.25.07.07.15.1.25.1h12.81c.1,0,.19-.03.27-.1.08-.07.12-.15.12-.25v-4.32c0-.1-.04-.19-.12-.26-.08-.07-.17-.1-.27-.1h-13.38v-3.93h12.54c.1,0,.18-.03.25-.1s.1-.15.1-.25v-4.05c0-.1-.04-.18-.1-.25-.07-.07-.16-.1-.25-.1h-11.97c-.1,0-.19.04-.25.1s-.1.16-.1.25v1.41h-3.93v-1.56c0-.76.19-1.46.57-2.08.38-.63.88-1.13,1.5-1.5.62-.37,1.32-.56,2.1-.56h12.24c.78,0,1.48.19,2.1.56.62.37,1.11.87,1.48,1.48.37.62.56,1.32.56,2.1v4.38c0,.24-.02.49-.06.73-.04.25-.1.49-.18.71.36.38.63.83.83,1.33.19.51.28,1.03.28,1.55v4.62Z"></path></g></svg>