<svg xmlns="http://www.w3.org/2000/svg" id="Layer_2" data-name="Layer 2" viewBox="0 0 40.35 40.35"><defs><style>      .cls-1 {        fill: #391032;        stroke-width: 0px;      }    </style></defs><g id="Layer_1-2" data-name="Layer 1"><path class="cls-1" d="m36.54,0H3.81C1.71,0,0,1.71,0,3.81v32.73c0,2.1,1.71,3.81,3.81,3.81h32.73c2.1,0,3.81-1.71,3.81-3.81V3.81c0-2.1-1.71-3.81-3.81-3.81Zm-5.67,13.3H13.77c-.1,0-.19.04-.25.1s-.1.16-.1.25v3.96c0,.1.03.19.1.25.07.07.15.1.25.1h12.96c.76,0,1.45.19,2.07.56.62.37,1.12.87,1.5,1.5s.57,1.33.57,2.08v4.71c0,.74-.19,1.43-.57,2.06s-.88,1.14-1.5,1.52-1.31.57-2.07.57h-13.11c-.76,0-1.45-.19-2.07-.57s-1.12-.89-1.5-1.52-.57-1.31-.57-2.06v-1.41h3.93v1.26c0,.1.03.19.1.25.07.07.15.1.25.1h12.81c.1,0,.18-.03.25-.1s.1-.15.1-.25v-4.38c0-.1-.04-.18-.1-.25-.07-.07-.16-.1-.25-.1H9.48v-12.57h21.39v3.93Z"></path></g></svg>